# 3ds Max Wavefront OBJ Exporter v0.97b - (c)2007 guruware
# File Created: 02.12.2015 21:52:43

mtllib hull.mtl

#
# object Box001
#

v  -19.9286 -20.3484 0.0000
v  40.5358 -20.3484 0.0000
v  -19.9286 20.3484 0.0000
v  40.5358 20.3484 0.0000
v  -19.9286 -20.3484 9.4772
v  40.5358 -20.3484 9.4772
v  -19.9286 20.3484 9.4772
v  40.5358 20.3484 9.4772
v  -19.9286 0.0000 -6.1873
v  40.5358 0.0000 -6.1873
v  -51.2982 -0.0000 9.7327
v  -32.1846 -17.9258 9.4823
v  -32.1846 16.9483 9.4823
# 13 vertices

vn 0.0000 0.0000 -1.0000
vn 0.0000 0.0000 -1.0000
vn 0.0000 -0.2909 -0.9567
vn 0.0000 -0.2909 -0.9567
vn 0.0000 -0.2909 -0.9567
vn 0.0000 0.0000 -1.0000
vn 0.0000 0.0000 1.0000
vn 0.0000 0.0000 1.0000
vn 0.0000 0.0000 1.0000
vn 0.0000 0.0000 1.0000
vn 0.0000 0.0000 1.0000
vn 0.0000 0.0000 1.0000
vn 0.0000 -1.0000 0.0000
vn 0.0000 -1.0000 0.0000
vn 0.0000 -1.0000 0.0000
vn 0.0000 -1.0000 0.0000
vn 0.0000 -1.0000 0.0000
vn 0.0000 -1.0000 0.0000
vn 1.0000 0.0000 0.0000
vn 1.0000 0.0000 0.0000
vn 1.0000 0.0000 0.0000
vn 1.0000 0.0000 0.0000
vn 1.0000 0.0000 0.0000
vn 1.0000 0.0000 0.0000
vn 1.0000 0.0000 0.0000
vn 1.0000 0.0000 0.0000
vn 1.0000 0.0000 0.0000
vn 0.0000 1.0000 0.0000
vn 0.0000 1.0000 0.0000
vn 0.0000 1.0000 0.0000
vn 0.0000 1.0000 0.0000
vn 0.0000 1.0000 0.0000
vn 0.0000 1.0000 0.0000
vn 0.0131 0.0000 0.9999
vn 0.0131 0.0000 0.9999
vn 0.0131 0.0000 0.9999
vn 0.0000 0.2909 -0.9567
vn 0.0000 0.2909 -0.9567
vn 0.0000 0.0000 -1.0000
vn 0.0000 0.0000 -1.0000
vn 0.0000 0.0000 -1.0000
vn 0.0000 0.2909 -0.9567
vn -0.4368 -0.2617 -0.8607
vn -0.4368 -0.2617 -0.8607
vn -0.4368 -0.2617 -0.8607
vn -0.1939 -0.9810 0.0000
vn -0.1939 -0.9810 0.0000
vn -0.1939 -0.9810 0.0000
vn 0.0004 0.0000 1.0000
vn 0.0004 0.0000 1.0000
vn 0.0004 0.0000 1.0000
vn 0.0004 0.0000 1.0000
vn 0.0004 0.0000 1.0000
vn 0.0004 0.0000 1.0000
vn -0.2673 0.9636 0.0000
vn -0.2673 0.9636 0.0000
vn -0.2673 0.9636 0.0000
vn -0.5736 0.6393 -0.5121
vn -0.5736 0.6393 -0.5121
vn -0.5736 0.6393 -0.5121
vn -0.5630 -0.5923 -0.5764
vn -0.5630 -0.5923 -0.5764
vn -0.5630 -0.5923 -0.5764
vn -0.4368 0.2617 -0.8607
vn -0.4368 0.2617 -0.8607
vn -0.4368 0.2617 -0.8607
# 66 vertex normals

vt 1.0000 0.0000 0.0000
vt 0.0000 0.0000 0.0000
vt 1.0000 1.0000 0.0000
vt 0.0000 1.0000 0.0000
vt 0.0000 0.0000 0.0000
vt 1.0000 0.0000 0.0000
vt 0.0000 1.0000 0.0000
vt 1.0000 1.0000 0.0000
vt 0.0000 0.0000 0.0000
vt 1.0000 0.0000 0.0000
vt 0.0000 1.0000 0.0000
vt 1.0000 1.0000 0.0000
vt 0.0000 0.0000 0.0000
vt 1.0000 0.0000 0.0000
vt 0.0000 1.0000 0.0000
vt 1.0000 1.0000 0.0000
vt 0.0000 0.0000 0.0000
vt 1.0000 0.0000 0.0000
vt 0.0000 1.0000 0.0000
vt 1.0000 1.0000 0.0000
vt 0.0000 0.0000 0.0000
vt 1.0000 0.0000 0.0000
vt 0.0000 1.0000 0.0000
vt 1.0000 1.0000 0.0000
vt 1.0000 0.5000 0.0000
vt 0.5000 0.0000 0.0000
vt 0.0000 0.5000 0.0000
vt 0.5000 0.0000 0.0000
vt 0.5000 0.0000 0.0000
vt 1.0000 0.5000 0.0000
vt 0.0000 0.5000 0.0000
# 31 texture coords

g Box001
usemtl wire_229166215
f 9/25/1 10/27/2 2/2/3 
f 2/2/4 1/1/5 9/25/6 
f 5/5/7 6/6/8 8/8/9 
f 8/8/10 7/7/11 5/5/12 
f 1/9/13 2/10/14 6/12/15 
f 6/12/16 5/11/17 1/9/18 
f 10/28/19 4/14/20 8/16/21 
f 2/13/22 10/28/23 8/16/24 
f 2/13/25 8/16/26 6/15/27 
f 4/17/28 3/18/29 7/20/30 
f 7/20/31 8/19/32 4/17/33 
f 11/29/34 12/30/35 13/31/36 
f 3/3/37 4/4/38 10/27/39 
f 10/27/40 9/25/41 3/3/42 
f 9/26/43 1/22/44 11/29/45 
f 1/22/46 5/24/47 12/30/48 
f 5/24/49 7/23/50 13/31/51 
f 13/31/52 12/30/53 5/24/54 
f 7/23/55 3/21/56 13/31/57 
f 3/21/58 11/29/59 13/31/60 
f 1/22/61 12/30/62 11/29/63 
f 3/21/64 9/26/65 11/29/66 
# 22 faces

