# 3ds Max Wavefront OBJ Exporter v0.97b - (c)2007 guruware
# File Created: 17.01.2016 12:41:21

#
# object Box001
#

v  -1.0000 -1.0000 -1.0000
v  1.0000 -1.0000 -1.0000
v  -1.0000 1.0000 -1.0000
v  1.0000 1.0000 -1.0000
v  -1.0000 -1.0000 1.0000
v  1.0000 -1.0000 1.0000
v  -1.0000 1.0000 1.0000
v  1.0000 1.0000 1.0000
# 8 vertices

vn 0.0000 0.0000 -1.0000
vn 0.0000 0.0000 -1.0000
vn 0.0000 0.0000 -1.0000
vn 0.0000 0.0000 -1.0000
vn 0.0000 0.0000 -1.0000
vn 0.0000 0.0000 -1.0000
vn 0.0000 0.0000 1.0000
vn 0.0000 0.0000 1.0000
vn 0.0000 0.0000 1.0000
vn 0.0000 0.0000 1.0000
vn 0.0000 0.0000 1.0000
vn 0.0000 0.0000 1.0000
vn 0.0000 -1.0000 0.0000
vn 0.0000 -1.0000 0.0000
vn 0.0000 -1.0000 0.0000
vn 0.0000 -1.0000 0.0000
vn 0.0000 -1.0000 0.0000
vn 0.0000 -1.0000 0.0000
vn 1.0000 0.0000 0.0000
vn 1.0000 0.0000 0.0000
vn 1.0000 0.0000 0.0000
vn 1.0000 0.0000 0.0000
vn 1.0000 0.0000 0.0000
vn 1.0000 0.0000 0.0000
vn 0.0000 1.0000 0.0000
vn 0.0000 1.0000 0.0000
vn 0.0000 1.0000 0.0000
vn 0.0000 1.0000 0.0000
vn 0.0000 1.0000 0.0000
vn 0.0000 1.0000 0.0000
vn -1.0000 0.0000 0.0000
vn -1.0000 0.0000 0.0000
vn -1.0000 0.0000 0.0000
vn -1.0000 0.0000 0.0000
vn -1.0000 0.0000 0.0000
vn -1.0000 0.0000 0.0000
# 36 vertex normals

g Box001
f 1//1 3//2 4//3 
f 4//4 2//5 1//6 
f 5//7 6//8 8//9 
f 8//10 7//11 5//12 
f 1//13 2//14 6//15 
f 6//16 5//17 1//18 
f 2//19 4//20 8//21 
f 8//22 6//23 2//24 
f 4//25 3//26 7//27 
f 7//28 8//29 4//30 
f 3//31 1//32 5//33 
f 5//34 7//35 3//36 
# 12 faces

