# 3ds Max Wavefront OBJ Exporter v0.97b - (c)2007 guruware
# File Created: 10.12.2015 20:50:02

mtllib shiphull.mtl

#
# object Box001
#

v  -20.6497 -79.2109 0.0000
v  19.7216 -79.2109 0.0000
v  -20.6497 30.4617 0.0000
v  19.7216 30.4617 0.0000
v  -20.6497 -83.0877 18.0975
v  19.7216 -83.0877 18.0975
v  -20.6497 75.1937 18.0975
v  19.7216 75.1937 18.0975
v  -11.0130 59.1647 0.0000
v  10.0850 59.1647 0.0000
v  10.0850 -79.2109 0.0000
v  -11.0130 -79.2109 0.0000
v  10.0850 98.4255 18.0975
v  -11.0130 98.4255 18.0975
v  19.7216 61.8968 18.0975
v  -20.6497 61.8968 18.0975
# 16 vertices

vn 0.0000 0.0000 -1.0000
vn 0.0000 0.0000 -1.0000
vn 0.0000 0.0000 -1.0000
vn 0.0000 0.0000 -1.0000
vn 0.0000 0.0000 -1.0000
vn 0.0000 0.0000 -1.0000
vn 0.0000 -0.9778 -0.2095
vn 0.0000 -0.9778 -0.2095
vn 0.0000 -0.9778 -0.2095
vn 0.0000 -0.9778 -0.2095
vn 0.0000 -0.9778 -0.2095
vn 0.0000 -0.9778 -0.2095
vn 0.0000 -0.9778 -0.2095
vn 0.0000 -0.9778 -0.2095
vn 0.0000 -0.9778 -0.2095
vn 0.0000 -0.9778 -0.2095
vn 0.0000 -0.9778 -0.2095
vn 0.0000 -0.9778 -0.2095
vn 1.0000 0.0000 0.0000
vn 1.0000 0.0000 0.0000
vn 1.0000 0.0000 0.0000
vn 1.0000 0.0000 0.0000
vn 1.0000 0.0000 0.0000
vn 1.0000 0.0000 0.0000
vn 1.0000 0.0000 0.0000
vn 1.0000 0.0000 0.0000
vn 1.0000 0.0000 0.0000
vn 0.0000 0.4186 -0.9082
vn 0.0000 0.4186 -0.9082
vn 0.0000 0.4186 -0.9082
vn 0.0000 0.4186 -0.9082
vn 0.0000 0.4186 -0.9082
vn 0.0000 0.4186 -0.9082
vn -1.0000 0.0000 0.0000
vn -1.0000 0.0000 0.0000
vn -1.0000 0.0000 0.0000
vn -1.0000 0.0000 0.0000
vn -1.0000 0.0000 0.0000
vn -1.0000 0.0000 0.0000
vn -1.0000 0.0000 0.0000
vn -1.0000 0.0000 0.0000
vn -1.0000 0.0000 0.0000
vn 0.0000 0.0000 -1.0000
vn 0.0000 0.0000 -1.0000
vn 0.0000 0.0000 -1.0000
vn 0.0000 0.0000 -1.0000
vn 0.0000 0.0000 -1.0000
vn 0.0000 0.0000 -1.0000
vn 0.0000 0.0000 -1.0000
vn 0.0000 0.0000 -1.0000
vn 0.0000 0.0000 -1.0000
vn 0.0000 0.0000 -1.0000
vn 0.0000 0.0000 -1.0000
vn 0.0000 0.0000 -1.0000
vn -0.7103 0.2947 -0.6392
vn -0.7103 0.2947 -0.6392
vn -0.7103 0.2947 -0.6392
vn -0.7451 0.2501 -0.6183
vn -0.7451 0.2501 -0.6183
vn -0.7451 0.2501 -0.6183
vn 0.7451 0.2501 -0.6183
vn 0.7451 0.2501 -0.6183
vn 0.7451 0.2501 -0.6183
vn 0.7103 0.2947 -0.6392
vn 0.7103 0.2947 -0.6392
vn 0.7103 0.2947 -0.6392
vn 0.0000 0.0000 1.0000
vn 0.0000 0.0000 1.0000
vn 0.0000 0.0000 1.0000
vn 0.0000 0.0000 1.0000
vn 0.0000 0.0000 1.0000
vn 0.0000 0.0000 1.0000
vn 0.0000 0.0000 1.0000
vn 0.0000 0.0000 1.0000
vn 0.0000 0.0000 1.0000
vn 0.0000 0.0000 1.0000
vn 0.0000 0.0000 1.0000
vn 0.0000 0.0000 1.0000
vn 0.0000 0.0000 1.0000
vn 0.0000 0.0000 1.0000
vn 0.0000 0.0000 1.0000
vn 0.0000 0.0000 1.0000
vn 0.0000 0.0000 1.0000
vn 0.0000 0.0000 1.0000
# 84 vertex normals

g Box001
usemtl default
f 11//1 12//2 9//3 
f 9//4 10//5 11//6 
f 6//7 12//8 11//9 
f 11//10 2//11 6//12 
f 12//13 6//14 5//15 
f 5//16 1//17 12//18 
f 4//19 8//20 15//21 
f 15//22 2//23 4//24 
f 2//25 15//26 6//27 
f 14//28 13//29 10//30 
f 10//31 9//32 14//33 
f 3//34 1//35 5//36 
f 5//37 16//38 3//39 
f 3//40 16//41 7//42 
f 4//43 2//44 11//45 
f 11//46 10//47 4//48 
f 3//49 9//50 12//51 
f 12//52 1//53 3//54 
f 7//55 14//56 9//57 
f 9//58 3//59 7//60 
f 8//61 4//62 10//63 
f 10//64 13//65 8//66 
f 15//67 8//68 13//69 
f 6//70 15//71 13//72 
f 13//73 14//74 7//75 
f 6//76 13//77 7//78 
f 6//79 7//80 16//81 
f 6//82 16//83 5//84 
# 28 faces

